<?xml version="1.0" encoding="utf-8"?>
<svg viewBox="5.118 250.802 203.985 243.226" xmlns="http://www.w3.org/2000/svg" height="20px" width="20px">
  <path opacity="1" d="M 45.902 257.725 C 28.93 257.725 15.132 270.742 15.132 286.753 L 15.132 460.925 C 15.132 476.936 28.93 489.953 45.902 489.953 L 168.983 489.953 C 185.955 489.953 199.754 476.936 199.754 460.925 L 199.754 330.297 L 138.212 330.297 C 129.702 330.297 122.828 323.811 122.828 315.782 L 122.828 257.725 L 45.902 257.725 Z M 138.212 257.725 L 138.212 315.782 L 199.754 315.782 L 138.212 257.725 Z M 82.442 360.931 L 67.537 374.992 L 82.442 389.052 C 86.961 393.315 86.961 400.21 82.442 404.428 C 77.921 408.647 70.614 408.692 66.142 404.428 L 43.017 382.702 C 38.498 378.439 38.498 371.545 43.017 367.326 L 66.095 345.555 C 70.614 341.291 77.921 341.291 82.393 345.555 C 86.865 349.818 86.912 356.713 82.393 360.931 L 82.442 360.931 Z M 136.289 345.509 L 159.367 367.281 C 163.887 371.545 163.887 378.439 159.367 382.657 L 136.289 404.428 C 131.769 408.692 124.463 408.692 119.991 404.428 C 115.52 400.165 115.472 393.271 119.991 389.052 L 134.895 374.992 L 119.991 360.931 C 115.472 356.667 115.472 349.773 119.991 345.555 C 124.51 341.337 131.818 341.291 136.289 345.555 L 136.289 345.509 Z" style="stroke-width: 10px; fill: rgb(255, 255, 255);" transform="matrix(1, 0, 0, 1, 0, 1.7763568394002505e-15)"/>
  <path opacity="1" d="M 160.731 405.323 C 160.731 402.443 158.109 400.117 154.862 400.117 C 151.617 400.117 148.994 402.443 148.994 405.323 L 148.994 444.814 L 135.533 432.87 C 133.24 430.836 129.517 430.836 127.224 432.87 C 124.932 434.904 124.932 438.207 127.224 440.241 L 150.699 461.068 C 152.992 463.102 156.715 463.102 159.007 461.068 L 182.482 440.241 C 184.775 438.207 184.775 434.904 182.482 432.87 C 180.19 430.836 176.467 430.836 174.174 432.87 L 160.731 444.814 L 160.731 405.323 Z M 119.65 457.391 C 113.176 457.391 107.913 462.061 107.913 467.805 L 107.913 473.011 C 107.913 478.755 113.176 483.425 119.65 483.425 L 190.074 483.425 C 196.548 483.425 201.812 478.755 201.812 473.011 L 201.812 467.805 C 201.812 462.061 196.548 457.391 190.074 457.391 L 171.46 457.391 L 163.152 464.762 C 158.567 468.83 151.14 468.83 146.555 464.762 L 138.265 457.391 L 119.65 457.391 Z M 187.14 466.503 C 190.528 466.503 192.647 469.757 190.952 472.36 C 190.166 473.569 188.713 474.312 187.14 474.312 C 183.752 474.312 181.635 471.058 183.328 468.456 C 184.115 467.247 185.568 466.503 187.14 466.503 Z" style="" transform="matrix(1, 0, 0, 1, 0, 1.7763568394002505e-15)"/>
</svg>